<svg width="174" height="134" viewBox="0 0 174 134" fill="none" xmlns="http://www.w3.org/2000/svg">
<path d="M44.9349 94.059C50.4632 87.4928 47.2306 75.7898 37.7147 67.9197C28.1988 60.0495 16.003 58.9924 10.4747 65.5586C4.94638 72.1248 8.17896 83.8278 17.6949 91.698C27.2108 99.5681 39.4065 100.625 44.9349 94.059Z" fill="white"/>
<path d="M156.303 91.6957C165.818 83.8256 169.051 72.1226 163.523 65.5564C157.994 58.9902 145.799 60.0473 136.283 67.9174C126.767 75.7876 123.534 87.4906 129.063 94.0568C134.591 100.623 146.787 99.5659 156.303 91.6957Z" fill="white"/>
<path d="M86.9988 133.859C121.469 133.859 149.413 109.66 149.413 79.808C149.413 49.9564 121.469 25.7568 86.9988 25.7568C52.5282 25.7568 24.5843 49.9564 24.5843 79.808C24.5843 109.66 52.5282 133.859 86.9988 133.859Z" fill="#303A5D"/>
<path d="M40.5651 8.62261L38.3038 9.22311L50.4184 54.0362L52.6798 53.4357L40.5651 8.62261Z" fill="white"/>
<path d="M133.427 8.62467L121.313 53.4378L123.574 54.0383L135.689 9.22517L133.427 8.62467Z" fill="white"/>
<path d="M86.9988 130.479C119.588 130.479 146.006 107.793 146.006 79.808C146.006 51.8233 119.588 29.1373 86.9988 29.1373C54.4097 29.1373 27.991 51.8233 27.991 79.808C27.991 107.793 54.4097 130.479 86.9988 130.479Z" fill="#E9F3F4"/>
<path d="M86.9988 125.449C55.4429 125.449 29.5993 104.072 28.0663 77.2953C28.0188 78.1276 27.995 78.9678 27.995 79.8119C27.995 107.754 54.4645 130.483 87.0027 130.483C119.541 130.483 146.01 107.75 146.01 79.8119C146.01 78.9678 145.987 78.1276 145.939 77.2953C144.398 104.068 118.555 125.449 86.9988 125.449Z" fill="#C3D0E3"/>
<path d="M131.116 56.687C125.431 51.8304 116.55 53.1378 106.267 54.6572C100.432 55.517 93.8202 56.4907 86.9988 56.4907C80.1774 56.4907 73.562 55.517 67.7309 54.6572C57.4474 53.1417 48.5621 51.8304 42.8816 56.687C39.2966 59.7533 37.5497 64.8651 37.5497 72.313C37.5497 92.8428 40.6316 104.794 47.5401 111.068C54.6388 117.515 64.4153 116.671 74.7662 115.775C78.7196 115.434 82.8037 115.08 86.9988 115.08C91.1938 115.08 95.2779 115.434 99.2313 115.775C102.8 116.086 106.302 116.388 109.65 116.388C116.007 116.388 121.807 115.296 126.461 111.068C133.37 104.794 136.452 92.8389 136.452 72.313C136.448 64.8612 134.705 59.7533 131.116 56.687Z" fill="#303A5D"/>
<path d="M86.9987 59.8672C61.571 59.8672 40.9603 47.1111 40.9603 72.313C40.9603 72.9766 40.9643 73.6244 40.9722 74.2722C57.071 88.5712 87.7078 92.8153 131.453 92.9135C132.487 87.5386 133.041 80.7896 133.041 72.313C133.037 47.1111 112.426 59.8672 86.9987 59.8672Z" fill="#44517B"/>
<path d="M62.6565 87.6799C68.1719 87.6799 72.643 83.2485 72.643 77.7821C72.643 72.3157 68.1719 67.8843 62.6565 67.8843C57.1411 67.8843 52.67 72.3157 52.67 77.7821C52.67 83.2485 57.1411 87.6799 62.6565 87.6799Z" fill="#26D6F6"/>
<path d="M65.1521 70.3578C63.7736 70.3578 62.6565 71.465 62.6565 72.8313C62.6565 74.1975 63.7736 75.3047 65.1521 75.3047C66.5307 75.3047 67.6478 74.1975 67.6478 72.8313C67.6517 71.465 66.5307 70.3578 65.1521 70.3578Z" fill="white"/>
<path d="M111.341 87.6799C116.856 87.6799 121.328 83.2485 121.328 77.7821C121.328 72.3157 116.856 67.8843 111.341 67.8843C105.826 67.8843 101.355 72.3157 101.355 77.7821C101.355 83.2485 105.826 87.6799 111.341 87.6799Z" fill="#26D6F6"/>
<path d="M113.837 70.3578C112.458 70.3578 111.341 71.465 111.341 72.8313C111.341 74.1975 112.458 75.3047 113.837 75.3047C115.215 75.3047 116.332 74.1975 116.332 72.8313C116.332 71.465 115.215 70.3578 113.837 70.3578Z" fill="white"/>
<path d="M47.1295 10.2098C47.8484 5.99799 44.9862 2.00601 40.7366 1.2935C36.4871 0.580993 32.4593 3.41776 31.7404 7.6296C31.0215 11.8414 33.8837 15.8334 38.1333 16.5459C42.3829 17.2584 46.4106 14.4217 47.1295 10.2098Z" fill="#303A5D"/>
<path d="M34.1548 5.89845C33.3388 7.29615 33.1249 8.9255 33.5448 10.4842C33.9647 12.0429 34.9748 13.3463 36.385 14.1551C37.7953 14.9639 39.4392 15.1759 41.0118 14.7597C42.5845 14.3436 43.8996 13.3424 44.7157 11.9447C45.5317 10.547 45.7456 8.91765 45.3257 7.35897C44.9058 5.8003 43.8957 4.49682 42.4855 3.68803C41.5466 3.15015 40.5048 2.87532 39.4471 2.87532C38.9163 2.87532 38.3855 2.94207 37.8586 3.08341C36.286 3.49958 34.9708 4.50074 34.1548 5.89845Z" fill="#26D6F6"/>
<path d="M35.4383 8.30124C36.3018 6.82108 37.6923 5.76102 39.36 5.31737C39.9146 5.16818 40.481 5.09751 41.0435 5.09751C42.014 5.09751 42.9687 5.32915 43.8561 5.7571C43.4124 5.14855 42.842 4.6303 42.1646 4.24161C41.3248 3.76262 40.3939 3.51527 39.4471 3.51527C38.9718 3.51527 38.4964 3.57809 38.029 3.6998C36.6227 4.07279 35.4462 4.96794 34.7173 6.21646C33.9884 7.46497 33.7943 8.92157 34.1746 10.3153C34.2736 10.6805 34.4123 11.0299 34.5787 11.3597C34.5945 10.2996 34.8837 9.24744 35.4383 8.30124Z" fill="#83F3FF"/>
<path d="M142.251 10.2064C142.97 5.99461 140.108 2.00263 135.858 1.29012C131.609 0.577609 127.581 3.41438 126.862 7.62622C126.143 11.8381 129.005 15.83 133.255 16.5425C137.504 17.255 141.532 14.4183 142.251 10.2064Z" fill="#303A5D"/>
<path d="M129.282 5.89845C128.466 7.29615 128.252 8.9255 128.672 10.4842C129.092 12.0429 130.102 13.3463 131.512 14.1551C132.922 14.9639 134.566 15.1759 136.139 14.7597C137.712 14.3436 139.027 13.3424 139.843 11.9447C140.659 10.547 140.873 8.91765 140.453 7.35897C140.033 5.8003 139.023 4.49682 137.612 3.68803C136.674 3.15015 135.632 2.87532 134.574 2.87532C134.043 2.87532 133.513 2.94207 132.986 3.08341C131.409 3.49958 130.094 4.50074 129.282 5.89845Z" fill="#26D6F6"/>
<path d="M130.561 8.30124C131.425 6.82108 132.815 5.76102 134.483 5.31737C135.038 5.16818 135.604 5.09751 136.167 5.09751C137.137 5.09751 138.092 5.32915 138.979 5.7571C138.535 5.14855 137.965 4.6303 137.288 4.24161C136.448 3.76262 135.517 3.51527 134.57 3.51527C134.095 3.51527 133.619 3.57809 133.152 3.6998C131.746 4.07279 130.569 4.96794 129.84 6.21646C129.111 7.46497 128.917 8.92157 129.298 10.3153C129.397 10.6805 129.535 11.0299 129.702 11.3597C129.722 10.2996 130.011 9.24744 130.561 8.30124Z" fill="#83F3FF"/>
</svg>
